# xmcd
#
# Track frame offsets: 
#        150
#        10701
#        28057
#        43186
#        65260
#        83711
#        95783
#        110957
#        131477
#        139900
#
# Disc length: 2046 seconds
#
# Revision: 4
# Processed by: cddbd v1.5.1PL2 Copyright (c) Steve Scherf et al.
# Submitted via: ExactAudioCopy v0.95b3
#
DISCID=8a07fc0a
DTITLE=Billy Bob Buddha - Blues All Around The World
DYEAR=1900
DGENRE=Blues
TTITLE0=Big Boss Man
TTITLE1=I Got My Mojo Working
TTITLE2=Romanian Blue
TTITLE3=Lone Some Road Blues
TTITLE4=HoochieCoochie Man
TTITLE5=Hey Hey Good Lookin
TTITLE6=Folsom Prison
TTITLE7=Bring It On Home
TTITLE8=Wammer Jammer
TTITLE9=Sweet Home Chicago
EXTD=Extrem groovy...
EXTT0=
EXTT1=
EXTT2=
EXTT3=
EXTT4=
EXTT5=
EXTT6=
EXTT7=
EXTT8=
EXTT9=
PLAYORDER=
